<svg xmlns="http://www.w3.org/2000/svg" xmlns:xlink="http://www.w3.org/1999/xlink" viewBox="0 0 34 33"><defs><style>.cls-1{fill:url(#Namnlös_övertoning_38);}.cls-2{fill:url(#Namnlös_övertoning_38-2);}.cls-3{fill:url(#Namnlös_övertoning_38-3);}</style><linearGradient id="Namnlös_övertoning_38" x1="6.34" y1="16" x2="34" y2="16" gradientUnits="userSpaceOnUse"><stop offset="0.01" stop-color="#fa4821"/><stop offset="1" stop-color="#ae0f56"/></linearGradient><linearGradient id="Namnlös_övertoning_38-2" x1="0" y1="5.17" x2="9.66" y2="5.17" xlink:href="#Namnlös_övertoning_38"/><linearGradient id="Namnlös_övertoning_38-3" x1="4.34" y1="27" x2="14" y2="27" xlink:href="#Namnlös_övertoning_38"/></defs><title>Founder</title><g id="Lager_2" data-name="Lager 2"><g id="Lager_1-2" data-name="Lager 1"><path class="cls-1" d="M33.35,14.89l-8.9-3.29L21.13.71a1,1,0,0,0-1.92,0L15.89,11.6,7,14.89a1,1,0,0,0,0,1.88l8.9,3.29,3.32,11.22a1,1,0,0,0,1.92,0l3.32-11.22,8.9-3.29a1,1,0,0,0,0-1.88Z"/><path class="cls-2" d="M5.77,9.35,6.64,7,9,6.11A1,1,0,0,0,9,4.23L6.65,3.36,5.77,1A1,1,0,0,0,3.89,1L3,3.36.65,4.23a1,1,0,0,0,0,1.88L3,7l.87,2.37a1,1,0,0,0,1.88,0Z"/><path class="cls-3" d="M13.35,25.89,11,25l-.9-3.3a1,1,0,0,0-1-.74,1,1,0,0,0-1,.74L7.3,25,5,25.89a1,1,0,0,0,0,1.88l2.3.85.91,3.62a1,1,0,0,0,1.94,0l.91-3.62,2.3-.85a1,1,0,0,0,0-1.88Z"/></g></g></svg>