<svg xmlns="http://www.w3.org/2000/svg" xmlns:xlink="http://www.w3.org/1999/xlink" viewBox="0 0 244.09 238.82"><defs><style>.cls-1{fill:url(#Namnlös_övertoning_17);}.cls-2{fill:url(#Namnlös_övertoning_20);}.cls-3{fill:url(#Namnlös_övertoning_13);}</style><linearGradient id="Namnlös_övertoning_17" x1="5.85" y1="197" x2="274.82" y2="197" gradientTransform="translate(-90.49 52.64) rotate(-25.41)" gradientUnits="userSpaceOnUse"><stop offset="0" stop-color="#b9186b"/><stop offset="0.23" stop-color="#bd1c66"/><stop offset="0.52" stop-color="#c92956"/><stop offset="0.84" stop-color="#dd3e3c"/><stop offset="1" stop-color="#e94b2c"/></linearGradient><linearGradient id="Namnlös_övertoning_20" x1="5.18" y1="14.86" x2="230.18" y2="14.86" gradientTransform="translate(249.19 135.58) rotate(-179.71)" gradientUnits="userSpaceOnUse"><stop offset="0" stop-color="#b9186b"/><stop offset="0.59" stop-color="#d83943"/><stop offset="1" stop-color="#e94b2c"/></linearGradient><linearGradient id="Namnlös_övertoning_13" x1="-3" y1="122.35" x2="222.21" y2="122.35" gradientTransform="matrix(0.87, -0.49, 0.49, 0.87, -36.92, 21.89)" gradientUnits="userSpaceOnUse"><stop offset="0" stop-color="#b9186b"/><stop offset="0.12" stop-color="#c22160"/><stop offset="0.47" stop-color="#d73843"/><stop offset="0.77" stop-color="#e44632"/><stop offset="1" stop-color="#e94b2c"/></linearGradient></defs><title>Stadia+ Thing</title><g id="Lager_2" data-name="Lager 2"><g id="Lager_2-2" data-name="Lager 2"><path class="cls-1" d="M233.3,136C208.7,148,43.28,227.72,17.64,237.81c-6.35,2.5-13.54.31-16.47-5.86S1,218.72,7,215.48C31.26,202.42,195.79,116.3,217,105c9.5-5,20.45-2.53,25.06,7.18S243.26,131.07,233.3,136Z"/><path class="cls-2" d="M44.67,95.13c38.51-.27,142.88,4.41,182.13,6.69,9.58.56,17.34,7.87,17.29,17.47s-7.88,16.85-17.47,17.29C188,138.35,80.21,142.9,46.44,144.25c-15.1.6-27.44-9.28-27.36-24.39S29.08,95.25,44.67,95.13Z"/><path class="cls-3" d="M201.79,71.2c-51.36,29.73-90,43-144.34,69.92C44.19,147.68,28.25,143.84,21,131s-2.24-28.48,10.26-36.38c50.44-31.84,86.65-60,130.84-87.56C181.88-5.26,205.9-1.5,217.28,18.72S222.59,59.17,201.79,71.2Z"/></g></g></svg>